Coordinates
version=1
nRows=26
nColumns=22
inDegrees=yes

Units are S.I. units (second, meters, Newtons, ...)
If the header above contains a line with 'inDegrees', this indicates whether rotational values are in degrees (yes) or radians (no).

endheader
time	pelvis_tilt	pelvis_list	pelvis_rotation	pelvis_tx	pelvis_ty	pelvis_tz	hip_flexion_r	hip_adduction_r	hip_rotation_r	knee_angle_r	ankle_angle_r	subtalar_angle_r	hip_flexion_l	hip_adduction_l	hip_rotation_l	knee_angle_l	ankle_angle_l	subtalar_angle_l	lumbar_extension	lumbar_bending	lumbar_rotation
      0.01000000	     -2.80095822	     -4.48613043	     -1.72971147	     -1.72486719	      1.01297824	     -0.08994330	     -0.55494789	      2.26428804	     -7.55266379	     -7.38420460	      7.66517320	      3.18548897	     -1.34930798	     -7.72646367	    -11.59196297	     -7.12823789	     10.01885120	      0.14326756	      0.57441629	      1.91491633	     -0.93916106
      0.02000000	     -2.79613673	     -4.48851108	     -1.71944552	     -1.72482671	      1.01297332	     -0.08983609	     -0.55957751	      2.27251516	     -7.55222485	     -7.39188811	      7.66362206	      3.18721081	     -1.35567708	     -7.73700326	    -11.59020467	     -7.12748182	     10.02013470	      0.14383071	      0.58418997	      1.89920321	     -0.93287129
      0.03000000	     -2.78431503	     -4.49778971	     -1.70632891	     -1.72477746	      1.01297643	     -0.08970905	     -0.57537559	      2.29030916	     -7.57033897	     -7.39350632	      7.66882554	      3.19615105	     -1.37485877	     -7.75444443	    -11.56030690	     -7.11803517	     10.02774214	      0.15314960	      0.58780333	      1.88634597	     -0.90085154
      0.04000000	     -2.77795453	     -4.49968902	     -1.69440575	     -1.72473187	      1.01297237	     -0.08955989	     -0.58206058	      2.30105485	     -7.56912317	     -7.40159645	      7.66915101	      3.19696494	     -1.38162748	     -7.76716720	    -11.55949074	     -7.11914012	     10.02804567	      0.15385581	      0.60081844	      1.86389785	     -0.89997125
      0.05000000	     -2.77148933	     -4.50200172	     -1.68213971	     -1.72469390	      1.01296855	     -0.08939452	     -0.58925630	      2.31355287	     -7.56956440	     -7.40829944	      7.67092576	      3.19746949	     -1.38779184	     -7.78121608	    -11.55695754	     -7.12048356	     10.02831132	      0.15481734	      0.61352806	      1.83891704	     -0.89754422
      0.06000000	     -2.75508082	     -4.50982442	     -1.65178778	     -1.72465271	      1.01297327	     -0.08924873	     -0.61839639	      2.33325088	     -7.60635151	     -7.39442960	      7.70334952	      3.19699907	     -1.39955513	     -7.80125441	    -11.50902681	     -7.12636109	     10.03044574	      0.17242884	      0.61532249	      1.81690868	     -0.89225557
      0.07000000	     -2.74880575	     -4.51172123	     -1.64428565	     -1.72463661	      1.01297222	     -0.08906343	     -0.62285518	      2.34574678	     -7.60643326	     -7.40278432	      7.70276415	      3.19758667	     -1.40528643	     -7.81545129	    -11.50809099	     -7.12715262	     10.03094493	      0.17328363	      0.62616064	      1.79049394	     -0.89598138
      0.08000000	     -2.73294033	     -4.51757000	     -1.60294396	     -1.72463970	      1.01298006	     -0.08893405	     -0.64088914	      2.36183109	     -7.66142968	     -7.40497067	      7.71895713	      3.19871753	     -1.40893577	     -7.83393915	    -11.45983921	     -7.13541227	     10.03789162	      0.20601544	      0.62218484	      1.76887043	     -0.93890910
      0.09000000	     -2.72790178	     -4.51939777	     -1.60308614	     -1.72465300	      1.01298175	     -0.08874212	     -0.64387944	      2.37436032	     -7.66278958	     -7.40871278	      7.71907003	      3.19916069	     -1.41168004	     -7.84711952	    -11.45836292	     -7.13885827	     10.03738890	      0.20658987	      0.63155168	      1.74402813	     -0.94007258
      0.10000000	     -2.72783853	     -4.52529318	     -1.59363039	     -1.72469373	      1.01297642	     -0.08856250	     -0.64559096	      2.39214853	     -7.68082045	     -7.40274403	      7.72938988	      3.19822154	     -1.39435162	     -7.86734631	    -11.44827164	     -7.16358991	     10.03220505	      0.21593768	      0.64211824	      1.72220324	     -0.94298228
      0.11000000	     -2.72469735	     -4.52721132	     -1.59776083	     -1.72473285	      1.01297760	     -0.08836979	     -0.64539083	      2.40472631	     -7.68321511	     -7.40536559	      7.72957021	      3.19853367	     -1.39490457	     -7.88003499	    -11.44723115	     -7.16566691	     10.03249615	      0.21646694	      0.64873306	      1.69913376	     -0.94869849
      0.12000000	     -2.76113231	     -4.54484634	     -1.57906284	     -1.72480914	      1.01292009	     -0.08821366	     -0.59934882	      2.43497149	     -7.72322048	     -7.41385128	      7.73431507	      3.19479420	     -1.32575806	     -7.91545160	    -11.43145106	     -7.20643641	     10.04895480	      0.23787287	      0.69794567	      1.69662608	     -0.99308380
      0.13000000	     -2.75917441	     -4.54648169	     -1.58998209	     -1.72485774	      1.01292173	     -0.08802550	     -0.59944543	      2.44661634	     -7.72570139	     -7.41260789	      7.73506183	      3.19502031	     -1.32562200	     -7.92668715	    -11.43023197	     -7.20955929	     10.04819233	      0.23793904	      0.70323917	      1.67530132	     -0.99768892
      0.14000000	     -2.77780889	     -4.55803834	     -1.59617763	     -1.72490272	      1.01289769	     -0.08784277	     -0.58944425	      2.47153913	     -7.72715613	     -7.38858013	      7.74291977	      3.19329270	     -1.29186399	     -7.95214687	    -11.44680268	     -7.23307068	     10.03861208	      0.24089216	      0.73339057	      1.66654584	     -1.01329474
      0.15000000	     -2.77708894	     -4.56037657	     -1.61035609	     -1.72494579	      1.01290044	     -0.08765893	     -0.58784590	      2.48326917	     -7.72900912	     -7.38872233	      7.74206755	      3.19370608	     -1.29240685	     -7.96358584	    -11.44598957	     -7.23524399	     10.03924720	      0.24071826	      0.73907747	      1.64726340	     -1.02098410
      0.16000000	     -2.82506745	     -4.59334957	     -1.63452949	     -1.72499584	      1.01284089	     -0.08745378	     -0.54266842	      2.53148250	     -7.69992856	     -7.37214994	      7.71877557	      3.19479415	     -1.22733379	     -8.01487455	    -11.48274221	     -7.26791319	     10.05047587	      0.24196144	      0.80291047	      1.66828814	     -1.03474804
      0.17000000	     -2.82532341	     -4.59496879	     -1.65355393	     -1.72503674	      1.01284847	     -0.08727320	     -0.54160701	      2.54198612	     -7.70264576	     -7.36869367	      7.71929094	      3.19503498	     -1.22909203	     -8.02442662	    -11.48312361	     -7.26797147	     10.05125934	      0.24172346	      0.80647928	      1.64907705	     -1.04428960
      0.18000000	     -2.83570516	     -4.59948039	     -1.67945089	     -1.72502061	      1.01284464	     -0.08709137	     -0.54422853	      2.55660024	     -7.68799908	     -7.34396423	      7.72069552	      3.19506113	     -1.22997242	     -8.03677932	    -11.51871268	     -7.25722672	     10.05113094	      0.24159180	      0.83439267	      1.63960433	     -1.06991302
      0.19000000	     -2.84666359	     -4.60897032	     -1.72257779	     -1.72505426	      1.01284760	     -0.08687373	     -0.54317131	      2.57796177	     -7.63753199	     -7.31650710	      7.70646491	      3.19744753	     -1.22329882	     -8.05721870	    -11.57429323	     -7.26228375	     10.04249744	      0.24381803	      0.84864673	      1.63358328	     -1.06656294
      0.20000000	     -2.84816148	     -4.61329221	     -1.76883328	     -1.72507765	      1.01285978	     -0.08666657	     -0.54122970	      2.59057240	     -7.59938246	     -7.31208264	      7.69497956	      3.19864924	     -1.23509131	     -8.06925441	    -11.61485180	     -7.25596049	     10.04602653	      0.24680345	      0.85385508	      1.62454381	     -1.06231451
      0.21000000	     -2.84895313	     -4.61416495	     -1.79292119	     -1.72512447	      1.01286923	     -0.08649145	     -0.53938105	      2.59955085	     -7.60090899	     -7.30654726	      7.69531007	      3.19899945	     -1.23690618	     -8.07805032	    -11.61496920	     -7.25778832	     10.04534601	      0.24697449	      0.85112506	      1.60742623	     -1.07010172
      0.22000000	     -2.84451537	     -4.61810818	     -1.86405579	     -1.72515295	      1.01289257	     -0.08624536	     -0.55112970	      2.61369116	     -7.50658004	     -7.28596445	      7.68484732	      3.20019355	     -1.25888465	     -8.09059359	    -11.71249302	     -7.25303346	     10.03078333	      0.25711628	      0.84384401	      1.59920593	     -1.03918063
      0.23000000	     -2.83799983	     -4.62098575	     -1.91221254	     -1.72520175	      1.01291244	     -0.08603606	     -0.55356556	      2.62499043	     -7.46058669	     -7.28710634	      7.68161931	      3.19876495	     -1.28037576	     -8.10061691	    -11.76096900	     -7.24188792	     10.02965303	      0.26651137	      0.83014656	      1.58729216	     -1.03267137
      0.24000000	     -2.83684911	     -4.62221383	     -1.94875635	     -1.72527736	      1.01292153	     -0.08585879	     -0.54774041	      2.63316636	     -7.43159750	     -7.29002065	      7.67851780	      3.19808870	     -1.29048497	     -8.10827109	    -11.79067779	     -7.23268613	     10.02586866	      0.27037180	      0.81401870	      1.57847727	     -1.04805324
      0.25000000	     -2.82858256	     -4.62741901	     -2.01248828	     -1.72534705	      1.01294567	     -0.08563110	     -0.55147826	      2.64711904	     -7.36659993	     -7.28821819	      7.67655660	      3.19403619	     -1.31458242	     -8.12103313	    -11.85980541	     -7.22612722	     10.01606074	      0.27861986	      0.79105021	      1.57264085	     -1.01994801
      0.26000000	     -2.82729426	     -4.62914859	     -2.04642384	     -1.72544883	      1.01295434	     -0.08546244	     -0.54203926	      2.65549216	     -7.34268498	     -7.29554410	      7.67278713	      3.19234396	     -1.32350414	     -8.12846345	    -11.88443630	     -7.21507508	     10.01446052	      0.28077782	      0.76877198	      1.56516263	     -1.04024625
